<svg width="625" height="200" viewBox="0 0 625 200" fill="none" xmlns="http://www.w3.org/2000/svg">
<g clip-path="url(#clip0_2779_2665)">
<path d="M468.473 193.458C470.535 193.458 472.172 192.44 473.093 190.789H473.134V193.21H475.417V173.358H473.024V181.228H472.969C472.117 179.659 470.466 178.655 468.417 178.655C464.815 178.655 462.354 181.571 462.354 186.057C462.354 190.541 464.828 193.458 468.473 193.458ZM468.926 180.76C471.387 180.76 473.038 182.865 473.038 186.057C473.038 189.262 471.387 191.353 468.926 191.353C466.396 191.353 464.801 189.303 464.801 186.057C464.801 182.823 466.396 180.76 468.926 180.76ZM478.772 193.21H481.165V178.902H478.772V193.21ZM479.968 176.495C480.793 176.495 481.467 175.821 481.467 175.009C481.467 174.184 480.793 173.523 479.968 173.523C479.157 173.523 478.483 174.184 478.483 175.009C478.483 175.821 479.157 176.495 479.968 176.495ZM490.212 191.215C487.751 191.215 486.142 189.207 486.142 186.002C486.142 182.796 487.751 180.76 490.212 180.76C492.701 180.76 494.365 182.851 494.365 186.002C494.365 189.152 492.701 191.215 490.212 191.215ZM490.295 198.603C494.241 198.603 496.757 196.333 496.757 192.921V178.902H494.475V181.31H494.434C493.485 179.645 491.807 178.655 489.786 178.655C486.087 178.655 483.694 181.516 483.694 186.002C483.694 190.445 486.087 193.32 489.731 193.32C491.738 193.32 493.43 192.302 494.31 190.748H494.365V193.004C494.365 195.136 492.866 196.567 490.391 196.567C488.604 196.567 487.187 195.7 486.72 194.394H484.258C484.657 196.829 487.146 198.603 490.295 198.603ZM500.003 193.21H502.395V178.902H500.003V193.21ZM501.199 176.495C502.024 176.495 502.698 175.821 502.698 175.009C502.698 174.184 502.024 173.523 501.199 173.523C500.388 173.523 499.714 174.184 499.714 175.009C499.714 175.821 500.388 176.495 501.199 176.495ZM506.397 175.449V178.902H504.266V180.87H506.397V189.495C506.397 192.247 507.415 193.32 510.04 193.32C510.604 193.32 511.265 193.279 511.553 193.21V191.202C511.389 191.229 510.838 191.271 510.563 191.271C509.34 191.271 508.789 190.679 508.789 189.372V180.87H511.567V178.902H508.789V175.449H506.397ZM518.566 191.422C516.848 191.422 515.706 190.528 515.706 189.166C515.706 187.817 516.806 186.965 518.731 186.841L522.554 186.607V187.776C522.554 189.84 520.822 191.422 518.566 191.422ZM518.03 193.458C519.955 193.458 521.77 192.385 522.622 190.748H522.677V193.21H524.947V183.319C524.947 180.471 522.829 178.655 519.473 178.655C516.091 178.655 513.974 180.553 513.808 183.03H516.118C516.421 181.626 517.576 180.76 519.419 180.76C521.399 180.76 522.554 181.805 522.554 183.552V184.749L518.456 184.983C515.156 185.176 513.272 186.716 513.272 189.166C513.272 191.738 515.184 193.458 518.03 193.458ZM528.109 193.21H530.502V173.358H528.109V193.21ZM544.225 191.422C542.506 191.422 541.364 190.528 541.364 189.166C541.364 187.817 542.465 186.965 544.39 186.841L548.212 186.607V187.776C548.212 189.84 546.48 191.422 544.225 191.422ZM543.689 193.458C545.614 193.458 547.429 192.385 548.281 190.748H548.336V193.21H550.605V183.319C550.605 180.471 548.488 178.655 545.132 178.655C541.749 178.655 539.632 180.553 539.467 183.03H541.777C542.08 181.626 543.235 180.76 545.077 180.76C547.057 180.76 548.212 181.805 548.212 183.552V184.749L544.115 184.983C540.815 185.176 538.931 186.716 538.931 189.166C538.931 191.738 540.843 193.458 543.689 193.458ZM559.46 191.215C556.999 191.215 555.39 189.207 555.39 186.002C555.39 182.796 556.999 180.76 559.46 180.76C561.949 180.76 563.613 182.851 563.613 186.002C563.613 189.152 561.949 191.215 559.46 191.215ZM559.543 198.603C563.489 198.603 566.006 196.333 566.006 192.921V178.902H563.723V181.31H563.682C562.734 179.645 561.056 178.655 559.034 178.655C555.335 178.655 552.943 181.516 552.943 186.002C552.943 190.445 555.335 193.32 558.979 193.32C560.987 193.32 562.678 192.302 563.558 190.748H563.613V193.004C563.613 195.136 562.115 196.567 559.639 196.567C557.852 196.567 556.435 195.7 555.968 194.394H553.507C553.905 196.829 556.394 198.603 559.543 198.603ZM574.862 180.732C577.117 180.732 578.615 182.438 578.67 184.832H570.901C571.052 182.452 572.62 180.732 574.862 180.732ZM578.615 189.11C578.217 190.459 576.883 191.381 575.068 191.381C572.496 191.381 570.888 189.578 570.888 186.841V186.703H581.145V185.795C581.145 181.461 578.766 178.655 574.903 178.655C570.956 178.655 568.426 181.668 568.426 186.111C568.426 190.61 570.915 193.458 575.013 193.458C578.134 193.458 580.554 191.615 580.967 189.11H578.615ZM583.566 193.21H585.958V184.79C585.958 182.37 587.429 180.773 589.684 180.773C591.885 180.773 592.971 182.039 592.971 184.35V193.21H595.364V183.924C595.364 180.677 593.549 178.655 590.413 178.655C588.199 178.655 586.673 179.645 585.876 181.186H585.821V178.902H583.566V193.21ZM610.297 183.594C609.994 181.021 607.863 178.655 604.288 178.655C600.342 178.655 597.715 181.544 597.715 186.057C597.715 190.665 600.355 193.458 604.316 193.458C607.56 193.458 609.953 191.449 610.324 188.602H607.973C607.56 190.321 606.282 191.353 604.329 191.353C601.854 191.353 600.149 189.386 600.149 186.057C600.149 182.81 601.827 180.76 604.301 180.76C606.405 180.76 607.616 182.039 607.959 183.594H610.297ZM613.707 198.562C616.292 198.562 617.473 197.558 618.701 194.215L624.322 178.902H621.804L617.843 190.816H617.806L613.845 178.902H611.287L616.567 193.224L616.237 194.228C615.687 195.893 614.945 196.539 613.611 196.539C613.309 196.539 612.937 196.526 612.676 196.471V198.479C612.937 198.534 613.418 198.562 613.707 198.562Z" fill="#17171A"/>
<path d="M229.517 160.175H252.938V108.138C252.938 98.4871 258.953 91.7309 267.856 91.7309C276.519 91.7309 281.733 97.2001 281.733 106.449V160.175H304.271V107.817C304.271 98.2458 310.127 91.7309 319.03 91.7309C328.093 91.7309 333.066 97.2001 333.066 107.174V160.175H356.487V101.302C356.487 83.9297 345.178 72.3482 328.334 72.3482C315.741 72.3482 305.475 79.1846 301.625 90.0427H301.143C298.256 78.7828 289.593 72.3482 277.16 72.3482C265.45 72.3482 256.226 79.1846 252.617 89.5599H252.136V73.9569H229.517V160.175ZM404.533 144.572C396.592 144.572 391.298 140.551 391.298 134.117C391.298 128.004 396.271 124.063 405.013 123.42L423.141 122.294V128.567C423.141 137.896 414.719 144.572 404.533 144.572ZM396.833 161.542C407.581 161.542 418.248 156.154 423.061 146.985H423.542V160.175H446.161V100.9C446.161 83.5279 431.804 72.1069 409.746 72.1069C386.967 72.1069 372.77 83.6081 371.887 100.337H393.304C394.426 93.9834 399.961 89.6402 408.703 89.6402C417.526 89.6402 423.141 94.305 423.141 102.348V108.058L401.485 109.345C380.069 110.632 368.037 119.72 368.037 135.404C368.037 150.926 380.47 161.542 396.833 161.542ZM485.624 108.54H485.303V44.1182H461.882V160.175H485.303V131.704L491.399 125.109L516.023 160.175H542.973L508.563 110.954L541.369 73.9569H514.82L485.624 108.54ZM584.281 89.4791C594.708 89.4791 601.846 97.0396 602.328 108.058H565.833C566.635 97.2809 574.014 89.4791 584.281 89.4791ZM602.648 133.795C600.483 140.39 593.906 144.653 585.324 144.653C573.372 144.653 565.592 136.207 565.592 123.902V122.454H624.865V115.296C624.865 89.0772 609.065 72.1069 584.04 72.1069C558.614 72.1069 542.572 89.9618 542.572 117.468C542.572 145.054 558.454 162.025 584.922 162.025C606.178 162.025 621.576 150.685 624.143 133.795H602.648Z" fill="#0463F1"/>
<path fill-rule="evenodd" clip-rule="evenodd" d="M564.536 0H609.575C615.027 0 619.447 4.42188 619.447 9.87654V44.4444C619.447 49.8991 615.027 54.321 609.575 54.321H564.536C559.084 54.321 554.664 49.8991 554.664 44.4444V9.87654C554.664 4.42188 559.084 0 564.536 0ZM574.769 34.9875C574.769 36.2119 573.779 37.2024 572.555 37.2024C571.318 37.2024 570.341 36.2119 570.341 34.9875C570.341 33.7493 571.318 32.7726 572.555 32.7726C573.779 32.7726 574.769 33.7493 574.769 34.9875ZM581.891 28.2051H581.946L586.952 22.2893H591.503L585.88 28.6178L591.779 37.0374H587.158L582.937 31.0391L581.891 32.1672V37.0374H577.876V17.1853H581.891V28.2051ZM604.828 37.0374H592.658V34.7536L600.001 25.4398V25.3573H592.768V22.2893H604.663V24.8345L597.76 33.8869V33.9557H604.828V37.0374Z" fill="#17171A"/>
<path d="M126.523 72.849H103.461L90.4078 137.193H89.9272L74.6323 72.849H52.2107L36.9958 137.193H36.5154L23.5428 72.849H0L22.8221 159.613H47.406L62.8609 98.2626H63.3416L78.8765 159.613H103.781L126.523 72.849ZM172.887 88.4694C183.298 88.4694 190.424 96.0774 190.905 107.166H154.47C155.27 96.32 162.638 88.4694 172.887 88.4694ZM191.225 133.066C189.063 139.702 182.497 143.992 173.929 143.992C161.997 143.992 154.229 135.493 154.229 123.11V121.653H213.407V114.45C213.407 88.0651 197.631 70.9873 172.647 70.9873C147.263 70.9873 131.247 88.9552 131.247 116.635C131.247 144.397 147.103 161.474 173.528 161.474C194.749 161.474 210.123 150.062 212.686 133.066H191.225Z" fill="#17171A"/>
</g>
<defs>
<clipPath id="clip0_2779_2665">
<rect width="625" height="200" fill="white"/>
</clipPath>
</defs>
</svg>
